<svg xmlns="http://www.w3.org/2000/svg" viewBox="0 0 32 32">
  <!-- Fundo com cantos arredondados igual ao rounded-lg do layout -->
  <rect width="32" height="32" rx="6" fill="#10b981"/>
  <!-- Mesmo icone do layout: M12 8c... M21 12a9 9... escalado de 24->32 -->
  <g transform="translate(5.33, 5.33) scale(0.888)">
    <path fill="none" stroke="white" stroke-width="2" stroke-linecap="round" stroke-linejoin="round"
      d="M12 8c-1.657 0-3 .895-3 2s1.343 2 3 2 3 .895 3 2-1.343 2-3 2m0-8c1.11 0 2.08.402 2.599 1M12 8V7m0 1v8m0 0v1m0-1c-1.11 0-2.08-.402-2.599-1M21 12a9 9 0 11-18 0 9 9 0 0118 0z"/>
  </g>
</svg>
