<svg xmlns="http://www.w3.org/2000/svg" viewBox="0 0 192 192">
  <rect width="192" height="192" rx="38" fill="#10b981"/>
  <!-- Icone escalado: original 24x24 com padding, centro em 96,96 -->
  <g transform="translate(36, 36) scale(5)">
    <path fill="none" stroke="white" stroke-width="2" stroke-linecap="round" stroke-linejoin="round"
      d="M12 8c-1.657 0-3 .895-3 2s1.343 2 3 2 3 .895 3 2-1.343 2-3 2m0-8c1.11 0 2.08.402 2.599 1M12 8V7m0 1v8m0 0v1m0-1c-1.11 0-2.08-.402-2.599-1M21 12a9 9 0 11-18 0 9 9 0 0118 0z"/>
  </g>
</svg>
